<svg width="42" height="42" viewBox="0 0 42 42" fill="none" xmlns="http://www.w3.org/2000/svg">
<path d="M18.1413 1.17157C19.7034 -0.390524 22.2364 -0.390524 23.7985 1.17157L27.9694 5.34247H32.6306C34.8394 5.34263 36.6304 7.1336 36.6306 9.34247V14.0036L40.7692 18.1423C42.331 19.7043 42.3311 22.2365 40.7692 23.7985L36.6306 27.9372V33.3425C36.6306 35.5515 34.8396 37.3423 32.6306 37.3425H27.2253L23.7985 40.7692C22.2364 42.3313 19.7034 42.3313 18.1413 40.7692L14.7145 37.3425H8.63056C6.42142 37.3425 4.63056 35.5516 4.63056 33.3425V27.2575L1.17157 23.7985C-0.390524 22.2364 -0.390524 19.7044 1.17157 18.1423L4.63056 14.6823V9.34247C4.63076 7.1335 6.42154 5.34247 8.63056 5.34247H13.9704L18.1413 1.17157Z" fill="#3b82f6"/>
</svg>
